<?xml version="1.0" encoding="UTF-8"?>
<svg id="Capa_2" data-name="Capa 2" xmlns="http://www.w3.org/2000/svg" viewBox="0 0 254 408.26">
  <g id="Capa_1-2" data-name="Capa 1">
    <g>
      <g>
        <path d="M47.96,42.16c5.29,8.36,12.29,15.36,21.16,21.16,17.24,11.44,37.89,14.85,61.96,10.58h.51c-3.24,14.68-10.58,26.63-22.02,35.67-11.26,9.05-25.6,13.48-43.01,13.48-19.97,0-36.01-5.8-48.3-17.24C6.14,94.21,0,79.36,0,61.27S6.66,27.82,19.8,16.73C32.94,5.63,50.52,0,72.54,0c17.07,0,33.79,2.22,50.18,6.66l4.27,49.84h-.34c-8.36-14.85-19.8-27.14-34.14-37.04-14.34-10.07-26.45-15.02-36.52-15.02s-15.7,6.31-15.7,15.19c0,6.66,2.56,14.17,7.68,22.53Z"/>
        <path d="M252.83,118.48c-2.74-.33-5.5-2.45-8.22-6.31-2.61-3.71-6.27-11.72-10.87-23.81-.45-1.18-.89-2.36-1.32-3.53-4.09-11.03-7.97-21.53-18.42-26.08,5.92-1.74,10.73-5.33,14-10.5,3.2-5.05,4.92-11.61,4.84-18.49-.09-7.81-2.41-14.86-6.53-19.86-4.6-5.59-11.28-8.55-19.29-8.55h-.08c-5.71.36-15.99.96-20.95,1.19l-1.29.06.08,3.64,1.33-.03c5.46-.12,6.92.7,7.63,7.08.1,1.08.19,2.79.26,5.07.09,3.47.14,8.18.14,14.01v59.23c.01,10.1-.12,16.36-.4,19.14v.08c-.08,2.12-.73,4.18-1.88,5.96-1.1,1.13-2.64,1.73-4.2,1.65-1.51-.62-2.78-1.72-3.58-3.14l-.02-.04c-1.24-2.02-2.09-4.22-2.55-6.54l-2.8-12.38L158.18,2.34h-14.64l-.09,3.62h3.03c.98.02,1.73.39,2.35,1.15,2.7,3.32,2.12,12.83.81,19.98l-12.47,57.41c-1.28,5.79-2.01,9.19-2.17,10.12-1.06,6.44-2.68,12.83-4.81,18.99-.95,2.28-2.81,4.08-5.13,4.94l-.86.32v3.46h19.68l.09-3.72-1.21-.13c-1.48-.16-2.82-1.02-3.58-2.27-1.43-2.48-2.09-5.29-1.92-8.13.54-7.41,1.72-14.83,3.49-22.06l6.28-28.89h13.3l8.34,43.15.02.08c1.04,3.98,1.75,8.07,2.11,12.17,0,3.25-.89,4.45-1.34,4.84-1.44.85-3.09,1.23-4.76,1.1l-1.39-.11-.11,3.97h25.61v-.06h25.25v-3.88h-2.74c-1.77.23-3.52-.43-4.69-1.77-1.12-1.96-1.74-4.18-1.78-6.44v-.08c-.23-2.93-.34-8.99-.34-18.51v-31.33c6.17.23,9.53,8.5,11.58,13.55.18.44.34.84.5,1.22,2.05,4.9,4.07,10.13,6,15.55,5.89,16.57,10.36,27.07,13.28,31.21l.4.56h17.74v-3.73l-1.17-.14ZM147.74,53.47l5.53-25.79,6.19,25.79h-11.72ZM216.18,8.48c5.56,5.45,5.56,16.99,5.56,22.53,0,10.48-2.19,17.85-6.52,21.88-2.69,2.5-6.29,3.73-10.69,3.65V5.51c.95-.11,1.91-.17,2.87-.18,3.69-.07,6.55.95,8.78,3.14Z"/>
      </g>
      <g>
        <path d="M75.33,133.44h17.11l10.74,80.78v3.98h2.19v-84.76h16.91v155.6h-16.51l-11.34-82.77v-3.98h-2.19v86.75h-16.91v-155.6Z"/>
        <path d="M138.88,133.44h27.46l12.34,155.6h-18.9l-1.39-29.45h-11.54l-1.39,29.45h-18.9l12.34-155.6ZM157.38,241.68l-3.78-81.38v-3.98h-1.99v3.98l-3.78,81.38h9.55Z"/>
      </g>
      <g>
        <path d="M4.77,302.32l1.52-3.95c3.04,1.06,8.65,1.82,12.6,1.82s9.56-.76,12.6-1.82l1.52,3.95c-5.16,1.97-5.62,4.1-4.71,9.71l8.04,51,8.04-51c.91-5.62.46-7.74-4.71-9.71l1.52-3.95c1.82,1.06,5.31,1.82,8.04,1.82h1.52c2.73,0,6.22-.76,8.04-1.82l1.52,3.95c-5.16,1.97-7.44,4.1-8.35,9.71l-14.88,94.41h-9.11l-14.88-94.41c-.91-5.62-3.19-7.74-8.35-9.71Z"/>
        <path d="M146.06,385.43h-55.37l-9.2,21.01h-37.27l50-107.36h48.31l49.85,107.36h-37.12l-9.2-21.01ZM135.32,361.2l-16.87-38.5-17.02,38.5h33.9Z"/>
        <path d="M198.84,408.26l-1.52-3.95c5.16-1.97,6.53-4.1,6.53-9.87v-82.27c0-5.77-1.37-7.89-6.53-9.87l1.52-3.95c3.04,1.06,8.65,1.82,12.6,1.82s9.56-.76,12.6-1.82l1.52,3.95c-5.16,1.97-6.53,4.1-6.53,9.87v87.43h15.33c5.77,0,8.35-2.28,11.38-6.83l3.49,2.28c-1.52,2.58-3.49,7.59-4.4,11.38h-33.39c-3.95,0-9.56.76-12.6,1.82Z"/>
      </g>
    </g>
  </g>
</svg>